<svg xmlns="http://www.w3.org/2000/svg" xmlns:xlink="http://www.w3.org/1999/xlink" version="1.1" x="0px" y="0px" viewBox="0 0 64 80" style="enable-background:new 0 0 64 64;" xml:space="preserve"><g><path d="M42.447,48.105L35,44.382V36c0-0.379-0.214-0.725-0.553-0.895L27,31.382V23c0-0.379-0.214-0.725-0.553-0.895l-8-4   c-0.281-0.141-0.613-0.141-0.895,0l-8,4C9.214,22.275,9,22.621,9,23v8.382l-7.447,3.724C1.214,35.275,1,35.621,1,36v9   c0,0.379,0.214,0.725,0.553,0.895L9,49.618V58c0,0.379,0.214,0.725,0.553,0.895l8,4C17.693,62.965,17.847,63,18,63   s0.307-0.035,0.447-0.105L26,59.118l7.553,3.776C33.693,62.965,33.847,63,34,63s0.307-0.035,0.447-0.105l8-4   C42.786,58.725,43,58.379,43,58v-9C43,48.621,42.786,48.275,42.447,48.105z M33,44.382l-7,3.5l-7-3.5v-7.764l7-3.5l7,3.5V44.382z    M11,23.618l7-3.5l7,3.5v7.764l-7,3.5l-7-3.5V23.618z M3,36.618l7-3.5l7,3.5v7.764l-7,3.5l-7-3.5V36.618z M18,60.882l-7-3.5v-7.764   l7-3.5l7,3.5v7.764L18,60.882z M41,57.382l-7,3.5l-7-3.5v-7.764l7-3.5l7,3.5V57.382z"/><path d="M54.447,32.105l-8-4c-0.281-0.141-0.613-0.141-0.895,0l-8,4C37.214,32.275,37,32.621,37,33v9   c0,0.379,0.214,0.725,0.553,0.895l8,4C45.693,46.965,45.847,47,46,47s0.307-0.035,0.447-0.105l8-4C54.786,42.725,55,42.379,55,42   v-9C55,32.621,54.786,32.275,54.447,32.105z M53,41.382l-7,3.5l-7-3.5v-7.764l7-3.5l7,3.5V41.382z"/><path d="M60.838,14.966l-7.496-5.248C53.759,8.901,54,7.979,54,7c0-3.309-2.691-6-6-6s-6,2.691-6,6   c0,0.979,0.241,1.901,0.658,2.719l-7.496,5.248C33.809,15.914,33,17.466,33,19.118v0.814C33,22.727,35.273,25,38.068,25   c1.177,0,2.264-0.415,3.126-1.115C42.893,25.852,45.36,27,48,27c2.64,0,5.107-1.148,6.806-3.115c0.862,0.7,1.949,1.115,3.126,1.115   C60.727,25,63,22.727,63,19.932v-0.814C63,17.466,62.191,15.914,60.838,14.966z M44.122,17.256C45.356,17.737,46.676,18,48,18   c1.324,0,2.644-0.263,3.878-0.744l0.551,1.79c-2.788,1.218-6.07,1.217-8.858,0L44.122,17.256z M51.287,15.335   c-2.083,0.846-4.492,0.846-6.575,0l0.875-2.845C46.327,12.816,47.142,13,48,13s1.673-0.184,2.412-0.51L51.287,15.335z M48,3   c2.206,0,4,1.794,4,4s-1.794,4-4,4s-4-1.794-4-4S45.794,3,48,3z M38.068,23C36.376,23,35,21.624,35,19.932v-0.814   c0-1,0.489-1.94,1.309-2.513l7.543-5.28c0.001,0.001,0.001,0.001,0.002,0.002l-2.947,9.577C40.521,22.158,39.38,23,38.068,23z    M48,25c-2.174,0-4.188-1.007-5.511-2.705c0.13-0.255,0.243-0.522,0.33-0.804l0.161-0.522C44.567,21.634,46.277,22,48,22   c1.722,0,3.433-0.367,5.021-1.031l0.161,0.523c0.087,0.282,0.2,0.548,0.33,0.804C52.188,23.994,50.173,25,48,25z M61,19.932   C61,21.624,59.624,23,57.932,23c-1.312,0-2.452-0.842-2.838-2.096l-2.947-9.578c0.001,0,0.001-0.001,0.002-0.002l7.543,5.28   C60.511,17.178,61,18.118,61,19.118V19.932z"/></g><text x="0" y="79" fill="#000000" font-size="5px" font-weight="bold" font-family="'Helvetica Neue', Helvetica, Arial-Unicode, Arial, Sans-serif">Created by Template</text><text x="0" y="84" fill="#000000" font-size="5px" font-weight="bold" font-family="'Helvetica Neue', Helvetica, Arial-Unicode, Arial, Sans-serif">from the Noun Project</text></svg>